<?xml version="1.0" encoding="UTF-8" standalone="no"?>
<!-- Created with Inkscape (http://www.inkscape.org/) -->

<svg
   xmlns:dc="http://purl.org/dc/elements/1.1/"
   xmlns:cc="http://creativecommons.org/ns#"
   xmlns:rdf="http://www.w3.org/1999/02/22-rdf-syntax-ns#"
   xmlns:svg="http://www.w3.org/2000/svg"
   xmlns="http://www.w3.org/2000/svg"
   xmlns:sodipodi="http://sodipodi.sourceforge.net/DTD/sodipodi-0.dtd"
   xmlns:inkscape="http://www.inkscape.org/namespaces/inkscape"
   width="18in"
   height="8in"
   viewBox="0 0 1620 720.00001"
   id="svg2"
   version="1.1"
   inkscape:version="0.48.5 r10040"
   sodipodi:docname="topplate.svg">
  <defs
     id="defs4" />
  <sodipodi:namedview
     id="base"
     pagecolor="#ffffff"
     bordercolor="#666666"
     borderopacity="1.0"
     inkscape:pageopacity="0.0"
     inkscape:pageshadow="2"
     inkscape:zoom="0.83623666"
     inkscape:cx="1072.7432"
     inkscape:cy="271.00861"
     inkscape:document-units="in"
     inkscape:current-layer="layer1"
     showgrid="true"
     units="in"
     inkscape:window-width="2560"
     inkscape:window-height="1378"
     inkscape:window-x="-8"
     inkscape:window-y="-8"
     inkscape:window-maximized="1"
     inkscape:snap-bbox="true"
     inkscape:bbox-paths="true"
     inkscape:bbox-nodes="true">
    <inkscape:grid
       type="xygrid"
       id="grid3352"
       units="in"
       spacingx="11.25"
       spacingy="11.25"
       dotted="false"
       empspacing="4"
       originx="0" />
  </sodipodi:namedview>
  <metadata
     id="metadata7">
    <rdf:RDF>
      <cc:Work
         rdf:about="">
        <dc:format>image/svg+xml</dc:format>
        <dc:type
           rdf:resource="http://purl.org/dc/dcmitype/StillImage" />
        <dc:title />
      </cc:Work>
    </rdf:RDF>
  </metadata>
  <g
     inkscape:label="Layer 1"
     inkscape:groupmode="layer"
     id="layer1"
     transform="translate(0,-332.36215)">
    <circle
       style="fill:none;stroke-width:0.09;stroke-miterlimit:4;stroke-dasharray:none"
       id="path4215"
       cx="16.875"
       cy="416.73715"
       r="16.875"
       d="m 33.75,416.73715 c 0,9.31981 -7.555195,16.875 -16.875,16.875 -9.3198052,0 -16.875,-7.55519 -16.875,-16.875 0,-9.3198 7.5551948,-16.875 16.875,-16.875 9.319805,0 16.875,7.5552 16.875,16.875 z" />
    <circle
       style="fill:none;stroke-width:0.09;stroke-miterlimit:4;stroke-dasharray:none"
       id="path4217"
       cx="95.625"
       cy="416.73715"
       r="16.875"
       d="m 112.5,416.73715 c 0,9.31981 -7.55519,16.875 -16.875,16.875 -9.319805,0 -16.875,-7.55519 -16.875,-16.875 0,-9.3198 7.555195,-16.875 16.875,-16.875 9.31981,0 16.875,7.5552 16.875,16.875 z"
       sodipodi:cx="95.625"
       sodipodi:cy="416.73715"
       sodipodi:rx="16.875"
       sodipodi:ry="16.875"
       transform="matrix(-1,0,0,1,1620.09,0)" />
    <ellipse
       style="fill:none;stroke-width:0.09;stroke-miterlimit:4;stroke-dasharray:none"
       id="path4225"
       cx="90"
       cy="276.11215"
       rx="45"
       ry="33.75"
       d="m 135,276.11215 c 0,18.63961 -20.14719,33.75 -45,33.75 -24.852814,0 -45,-15.11039 -45,-33.75 0,-18.63961 20.147186,-33.75 45,-33.75 24.85281,0 45,15.11039 45,33.75 z" />
    <circle
       style="fill:none;stroke:#000000;stroke-width:0.09000001;stroke-miterlimit:4;stroke-opacity:1;stroke-dasharray:none"
       id="path4172"
       cx="236.76639"
       cy="829.16211"
       r="11.655"
       d="m 248.42139,829.16211 c 0,6.43688 -5.21812,11.655 -11.655,11.655 -6.43688,0 -11.655,-5.21812 -11.655,-11.655 0,-6.43688 5.21812,-11.655 11.655,-11.655 6.43688,0 11.655,5.21812 11.655,11.655 z"
       sodipodi:cx="236.76639"
       sodipodi:cy="829.16211"
       sodipodi:rx="11.655"
       sodipodi:ry="11.655"
       transform="matrix(-1,0,0,1,1620.09,0)" />
    <circle
       style="fill:none;stroke:#000000;stroke-width:0.09000001;stroke-miterlimit:4;stroke-opacity:1;stroke-dasharray:none"
       id="path4172-3"
       cx="236.76639"
       cy="554.66211"
       r="11.655"
       d="m 248.42139,554.66211 c 0,6.43688 -5.21812,11.655 -11.655,11.655 -6.43688,0 -11.655,-5.21812 -11.655,-11.655 0,-6.43688 5.21812,-11.655 11.655,-11.655 6.43688,0 11.655,5.21812 11.655,11.655 z"
       sodipodi:cx="236.76639"
       sodipodi:cy="554.66211"
       sodipodi:rx="11.655"
       sodipodi:ry="11.655"
       transform="matrix(-1,0,0,1,1620.09,0)" />
    <circle
       style="fill:none;stroke:#000000;stroke-width:0.09000001;stroke-miterlimit:4;stroke-opacity:1;stroke-dasharray:none"
       id="path4172-6"
       cx="1373.0164"
       cy="815.64075"
       r="11.655"
       d="m 1384.6714,815.64075 c 0,6.43688 -5.2182,11.655 -11.655,11.655 -6.4369,0 -11.655,-5.21812 -11.655,-11.655 0,-6.43688 5.2181,-11.655 11.655,-11.655 6.4368,0 11.655,5.21812 11.655,11.655 z"
       sodipodi:cx="1373.0164"
       sodipodi:cy="815.64075"
       sodipodi:rx="11.655"
       sodipodi:ry="11.655"
       transform="matrix(-1,0,0,1,1620.09,0)" />
    <circle
       style="fill:none;stroke:#000000;stroke-width:0.09000001;stroke-miterlimit:4;stroke-opacity:1;stroke-dasharray:none"
       id="path4172-3-6"
       cx="1373.0164"
       cy="568.14075"
       r="11.655"
       d="m 1384.6714,568.14075 c 0,6.43688 -5.2182,11.655 -11.655,11.655 -6.4369,0 -11.655,-5.21812 -11.655,-11.655 0,-6.43688 5.2181,-11.655 11.655,-11.655 6.4368,0 11.655,5.21812 11.655,11.655 z"
       sodipodi:cx="1373.0164"
       sodipodi:cy="568.14075"
       sodipodi:rx="11.655"
       sodipodi:ry="11.655"
       transform="matrix(-1,0,0,1,1620.09,0)" />
    <rect
       style="fill:none;stroke:#000000;stroke-width:0.09;stroke-linecap:round;stroke-linejoin:round;stroke-miterlimit:4;stroke-opacity:1;stroke-dasharray:none"
       id="rect4148"
       width="1530"
       height="630"
       x="-1575.045"
       y="377.40717"
       transform="scale(-1,1)" />
  </g>
</svg>
